<svg width="24" height="24" viewBox="0 0 24 24" fill="none" xmlns="http://www.w3.org/2000/svg">
<path d="M13.9297 11H3.92969C3.73078 11 3.54001 10.921 3.39936 10.7803C3.25871 10.6397 3.17969 10.4489 3.17969 10.25C3.17969 10.0511 3.25871 9.86032 3.39936 9.71967C3.54001 9.57902 3.73078 9.5 3.92969 9.5H13.9297C14.1286 9.5 14.3194 9.57902 14.46 9.71967C14.6007 9.86032 14.6797 10.0511 14.6797 10.25C14.6797 10.4489 14.6007 10.6397 14.46 10.7803C14.3194 10.921 14.1286 11 13.9297 11ZM20.0697 7H4.06969C3.87078 7 3.68001 6.92098 3.53936 6.78033C3.39871 6.63968 3.31969 6.44891 3.31969 6.25C3.31969 6.05109 3.39871 5.86032 3.53936 5.71967C3.68001 5.57902 3.87078 5.5 4.06969 5.5H20.0697C20.2686 5.5 20.4594 5.57902 20.6 5.71967C20.7407 5.86032 20.8197 6.05109 20.8197 6.25C20.8197 6.44891 20.7407 6.63968 20.6 6.78033C20.4594 6.92098 20.2686 7 20.0697 7ZM20.0697 15H4.06969C3.87078 15 3.68001 14.921 3.53936 14.7803C3.39871 14.6397 3.31969 14.4489 3.31969 14.25C3.31969 14.0511 3.39871 13.8603 3.53936 13.7197C3.68001 13.579 3.87078 13.5 4.06969 13.5H20.0697C20.2686 13.5 20.4594 13.579 20.6 13.7197C20.7407 13.8603 20.8197 14.0511 20.8197 14.25C20.8197 14.4489 20.7407 14.6397 20.6 14.7803C20.4594 14.921 20.2686 15 20.0697 15ZM13.9297 19H3.92969C3.73078 19 3.54001 18.921 3.39936 18.7803C3.25871 18.6397 3.17969 18.4489 3.17969 18.25C3.17969 18.0511 3.25871 17.8603 3.39936 17.7197C3.54001 17.579 3.73078 17.5 3.92969 17.5H13.9297C14.1286 17.5 14.3194 17.579 14.46 17.7197C14.6007 17.8603 14.6797 18.0511 14.6797 18.25C14.6797 18.4489 14.6007 18.6397 14.46 18.7803C14.3194 18.921 14.1286 19 13.9297 19Z" fill="white"/>
</svg>
