<svg width="480" height="416" viewBox="0 0 480 416" fill="none" xmlns="http://www.w3.org/2000/svg">
<path d="M416 96L387.33 371.74C386.414 379.525 382.672 386.704 376.814 391.913C370.956 397.122 363.389 400 355.55 400H124.46C116.621 400 109.054 397.122 103.196 391.913C97.3383 386.704 93.5962 379.525 92.68 371.74L64 96" stroke="white" stroke-width="32" stroke-linecap="round" stroke-linejoin="round"/>
<path d="M448 16H32C23.1634 16 16 23.1634 16 32V80C16 88.8366 23.1634 96 32 96H448C456.837 96 464 88.8366 464 80V32C464 23.1634 456.837 16 448 16Z" stroke="white" stroke-width="32" stroke-linecap="round" stroke-linejoin="round"/>
<path d="M289.669 323.053L340.384 173" stroke="white" stroke-width="32" stroke-linecap="round" stroke-linejoin="round"/>
<path d="M200.074 321.17L144.096 173" stroke="white" stroke-width="32" stroke-linecap="round" stroke-linejoin="round"/>
</svg>
