<svg width="24" height="24" viewBox="0 0 24 24" fill="none" xmlns="http://www.w3.org/2000/svg">
<path d="M9.69667 12.695L4.42567 11.785C4.00392 11.6673 3.63025 11.4191 3.35817 11.0761C3.0861 10.733 2.92958 10.3126 2.91104 9.87515C2.8925 9.43768 3.0129 9.00556 3.25497 8.64071C3.49705 8.27585 3.84839 7.99696 4.25867 7.844L18.3037 2.876C18.6749 2.74073 19.077 2.71427 19.4628 2.79972C19.8486 2.88516 20.2019 3.07898 20.4813 3.35836C20.7607 3.63775 20.9545 3.9911 21.04 4.37686C21.1254 4.76263 21.0989 5.16477 20.9637 5.536L15.9957 19.854C15.8486 20.2789 15.5674 20.6446 15.1945 20.8959C14.8216 21.1472 14.3772 21.2706 13.9281 21.2474C13.4791 21.2243 13.0497 21.0559 12.7046 20.7677C12.3595 20.4794 12.1173 20.0868 12.0147 19.649L11.1047 14.103C11.0069 13.7691 10.8266 13.4651 10.5806 13.2191C10.3346 12.973 10.0306 12.7928 9.69667 12.695Z" stroke="white" stroke-width="1.5" stroke-linecap="round" stroke-linejoin="round"/>
</svg>
