<svg width="34" height="34" viewBox="0 0 34 34" fill="none" xmlns="http://www.w3.org/2000/svg">
<g clip-path="url(#clip0_2487_1125)">
<path d="M11.8937 20.4551L6.79211 19.1758C6.38034 19.0305 6.00426 18.7644 5.71774 18.4156C5.43122 18.0669 5.24895 17.6534 5.19705 17.2343C5.14514 16.8153 5.22627 16.4122 5.4288 16.0829C5.63132 15.7535 5.94487 15.5147 6.32452 15.4008L19.341 11.7563C19.6848 11.6558 20.0667 11.6617 20.4418 11.7733C20.8169 11.8849 21.1695 12.0976 21.4582 12.3862C21.7468 12.6749 21.9595 13.0275 22.0711 13.4026C22.1827 13.7777 22.1886 14.1596 22.0881 14.5034L18.465 27.7813C18.358 28.1756 18.1183 28.5028 17.782 28.7136C17.4456 28.9244 17.0309 29.0074 16.6004 28.9501C16.1698 28.8928 15.7468 28.6982 15.3949 28.3958C15.0431 28.0934 14.7815 27.6995 14.6497 27.2734L13.3482 21.9097C13.2287 21.5832 13.0328 21.2789 12.7787 21.0247C12.5245 20.7705 12.2202 20.5747 11.8937 20.4551Z" stroke="white" stroke-width="1.5" stroke-linecap="round" stroke-linejoin="round"/>
</g>
<defs>
<clipPath id="clip0_2487_1125">
<rect width="24" height="24" fill="white" transform="translate(17 0.0294189) rotate(45)"/>
</clipPath>
</defs>
</svg>
