<svg xmlns="http://www.w3.org/2000/svg" xmlns:xlink="http://www.w3.org/1999/xlink" version="1.1" width="256" height="256" viewBox="0 0 256 256" xml:space="preserve">

<defs>
</defs>
<g style="stroke: none; stroke-width: 0; stroke-dasharray: none; stroke-linecap: butt; stroke-linejoin: miter; stroke-miterlimit: 10; fill: none; fill-rule: nonzero; opacity: 1;" transform="translate(1.4065934065934016 1.4065934065934016) scale(2.81 2.81)" >
	<path d="M 42.245 45.324 H 31.84 v -9.427 h 10.404 V 45.324 z M 33.83 43.335 h 6.426 v -5.449 H 33.83 V 43.335 z" style="stroke: none; stroke-width: 1; stroke-dasharray: none; stroke-linecap: butt; stroke-linejoin: miter; stroke-miterlimit: 10; fill: rgb(0,0,0); fill-rule: nonzero; opacity: 1;" transform=" matrix(1 0 0 1 0 0) " stroke-linecap="round" />
	<path d="M 57.164 45.324 H 46.761 v -9.427 h 10.403 V 45.324 z M 48.75 43.335 h 6.425 v -5.449 H 48.75 V 43.335 z" style="stroke: none; stroke-width: 1; stroke-dasharray: none; stroke-linecap: butt; stroke-linejoin: miter; stroke-miterlimit: 10; fill: rgb(0,0,0); fill-rule: nonzero; opacity: 1;" transform=" matrix(1 0 0 1 0 0) " stroke-linecap="round" />
	<path d="M 42.245 58.628 H 31.84 v -9.427 h 10.404 V 58.628 z M 33.83 56.639 h 6.426 V 51.19 H 33.83 V 56.639 z" style="stroke: none; stroke-width: 1; stroke-dasharray: none; stroke-linecap: butt; stroke-linejoin: miter; stroke-miterlimit: 10; fill: rgb(0,0,0); fill-rule: nonzero; opacity: 1;" transform=" matrix(1 0 0 1 0 0) " stroke-linecap="round" />
	<path d="M 57.164 58.628 H 46.761 v -9.427 h 10.403 V 58.628 z M 48.75 56.639 h 6.425 V 51.19 H 48.75 V 56.639 z" style="stroke: none; stroke-width: 1; stroke-dasharray: none; stroke-linecap: butt; stroke-linejoin: miter; stroke-miterlimit: 10; fill: rgb(0,0,0); fill-rule: nonzero; opacity: 1;" transform=" matrix(1 0 0 1 0 0) " stroke-linecap="round" />
	<path d="M 42.245 71.933 H 31.84 v -9.427 h 10.404 V 71.933 z M 33.83 69.943 h 6.426 v -5.448 H 33.83 V 69.943 z" style="stroke: none; stroke-width: 1; stroke-dasharray: none; stroke-linecap: butt; stroke-linejoin: miter; stroke-miterlimit: 10; fill: rgb(0,0,0); fill-rule: nonzero; opacity: 1;" transform=" matrix(1 0 0 1 0 0) " stroke-linecap="round" />
	<path d="M 57.164 71.933 H 46.761 v -9.427 h 10.403 V 71.933 z M 48.75 69.943 h 6.425 v -5.448 H 48.75 V 69.943 z" style="stroke: none; stroke-width: 1; stroke-dasharray: none; stroke-linecap: butt; stroke-linejoin: miter; stroke-miterlimit: 10; fill: rgb(0,0,0); fill-rule: nonzero; opacity: 1;" transform=" matrix(1 0 0 1 0 0) " stroke-linecap="round" />
	<path d="M 64.876 40.494 V 16.059 L 25.123 0 v 26.237 l -13.005 9.237 V 90 h 13.005 h 1.989 h 12.685 h 10.404 h 12.685 h 1.989 h 13.005 V 40.494 H 64.876 z M 25.123 88.011 H 14.108 V 36.5 l 11.015 -7.823 V 88.011 z M 41.787 88.011 v -9.964 h 6.425 v 9.964 H 41.787 z M 62.886 88.011 H 50.201 V 76.057 H 39.798 v 11.954 H 27.113 V 24.823 V 2.949 L 62.886 17.4 v 23.093 V 88.011 z M 75.892 88.011 H 64.876 V 42.483 h 11.016 V 88.011 z" style="stroke: none; stroke-width: 1; stroke-dasharray: none; stroke-linecap: butt; stroke-linejoin: miter; stroke-miterlimit: 10; fill: rgb(0,0,0); fill-rule: nonzero; opacity: 1;" transform=" matrix(1 0 0 1 0 0) " stroke-linecap="round" />
	<polygon points="48.21,18.37 48.21,23.35 41.79,23.35 41.79,18.37 39.8,18.37 39.8,30.32 41.79,30.32 41.79,25.34 48.21,25.34 48.21,30.32 50.2,30.32 50.2,18.37 " style="stroke: none; stroke-width: 1; stroke-dasharray: none; stroke-linecap: butt; stroke-linejoin: miter; stroke-miterlimit: 10; fill: rgb(0,0,0); fill-rule: nonzero; opacity: 1;" transform="  matrix(1 0 0 1 0 0) "/>
</g>
</svg>