<svg width="16" height="20" viewBox="0 0 16 20" fill="none" xmlns="http://www.w3.org/2000/svg">
<path d="M8 1.00003L8.295 0.310026C8.20176 0.270138 8.10141 0.249573 8 0.249573C7.89859 0.249573 7.79824 0.270138 7.705 0.310026L8 1.00003ZM8 19L7.628 19.651C7.7413 19.7157 7.86952 19.7498 8 19.7498C8.13048 19.7498 8.2587 19.7157 8.372 19.651L8 19ZM7.704 0.311026L1.312 3.05003L1.9 4.43003L8.294 1.69003L7.704 0.311026ZM0.25 4.65903V11.519H1.75V4.65903H0.25ZM3.651 17.379L7.628 19.651L8.372 18.349L4.395 16.076L3.651 17.379ZM8.372 19.651L12.349 17.379L11.605 16.076L7.628 18.349L8.372 19.651ZM15.75 11.518V4.66003H14.25V11.52L15.75 11.518ZM14.69 3.05103L8.295 0.311026L7.705 1.68903L14.099 4.43003L14.69 3.05103ZM15.75 4.66003C15.75 3.96003 15.333 3.32703 14.69 3.05103L14.099 4.43003C14.1439 4.44939 14.1821 4.4815 14.209 4.52238C14.2358 4.56327 14.2501 4.61112 14.25 4.66003H15.75ZM12.349 17.379C13.3821 16.7887 14.2407 15.9358 14.838 14.9067C15.4353 13.8776 15.7499 12.7089 15.75 11.519H14.25C14.2498 12.4443 14.0051 13.3531 13.5406 14.1534C13.0761 14.9536 12.4083 15.6169 11.605 16.076L12.349 17.379ZM0.25 11.519C0.250107 12.7089 0.564731 13.8776 1.16199 14.9067C1.75925 15.9358 2.61792 16.7887 3.651 17.379L4.395 16.076C3.59151 15.6168 2.92367 14.9534 2.45917 14.1529C1.99468 13.3525 1.75002 12.4435 1.75 11.518L0.25 11.519ZM1.31 3.05003C0.995407 3.185 0.727308 3.40928 0.538899 3.69509C0.35049 3.9809 0.250045 4.3167 0.25 4.65903H1.75C1.75 4.55903 1.81 4.46803 1.902 4.42803L1.31 3.05003Z" fill="white"/>
<path d="M11 8L7 12L5 10" stroke="white" stroke-width="1.5" stroke-linecap="round" stroke-linejoin="round"/>
</svg>
