<svg width="24" height="24" viewBox="0 0 24 24" fill="none" xmlns="http://www.w3.org/2000/svg">
<path d="M18.9997 7.24999H18.7497V4.99999C18.7471 4.53667 18.5619 4.09307 18.2343 3.76545C17.9067 3.43783 17.4631 3.25261 16.9997 3.24999C16.9203 3.23617 16.8391 3.23617 16.7597 3.24999L4.85974 7.24999H4.58974L4.41974 7.30999H4.27974L4.11974 7.39999L3.99974 7.56999L3.85974 7.68999L3.74974 7.78999L3.62974 7.93999C3.59787 7.96881 3.57086 8.00257 3.54974 8.03999C3.51334 8.09823 3.47996 8.15831 3.44974 8.21999L3.38974 8.32999C3.36219 8.40191 3.33882 8.47537 3.31974 8.54999C3.32378 8.58654 3.32378 8.62343 3.31974 8.65999C3.31009 8.77311 3.31009 8.88686 3.31974 8.99999V19C3.32184 19.4515 3.49739 19.8849 3.81008 20.2107C4.12277 20.5364 4.54868 20.7295 4.99974 20.75H18.9997C19.4631 20.7474 19.9067 20.5621 20.2343 20.2345C20.5619 19.9069 20.7471 19.4633 20.7497 19V8.99999C20.7471 8.53667 20.5619 8.09307 20.2343 7.76545C19.9067 7.43783 19.4631 7.25261 18.9997 7.24999ZM17.0797 4.75999C17.129 4.77815 17.1716 4.8108 17.2019 4.85364C17.2323 4.89648 17.2489 4.9475 17.2497 4.99999V7.24999H9.61974L17.0797 4.75999ZM19.2497 19C19.2497 19.0663 19.2234 19.1299 19.1765 19.1768C19.1296 19.2236 19.066 19.25 18.9997 19.25H4.99974C4.93343 19.25 4.86985 19.2236 4.82296 19.1768C4.77608 19.1299 4.74974 19.0663 4.74974 19V8.99999C4.74974 8.93368 4.77608 8.87009 4.82296 8.82321C4.86985 8.77633 4.93343 8.74999 4.99974 8.74999H18.9997C19.066 8.74999 19.1296 8.77633 19.1765 8.82321C19.2234 8.87009 19.2497 8.93368 19.2497 8.99999V19Z" fill="white"/>
<path d="M16.5 15.25C17.1904 15.25 17.75 14.6904 17.75 14C17.75 13.3096 17.1904 12.75 16.5 12.75C15.8096 12.75 15.25 13.3096 15.25 14C15.25 14.6904 15.8096 15.25 16.5 15.25Z" fill="white"/>
</svg>
